<?xml version="1.0" encoding="utf-8"?>
<!-- Generator: Adobe Illustrator 16.0.3, SVG Export Plug-In . SVG Version: 6.00 Build 0)  -->
<!DOCTYPE svg PUBLIC "-//W3C//DTD SVG 1.1//EN" "http://www.w3.org/Graphics/SVG/1.1/DTD/svg11.dtd">
<svg version="1.1" id="Layer_1" xmlns="http://www.w3.org/2000/svg" xmlns:xlink="http://www.w3.org/1999/xlink" x="0px" y="0px"
	 width="55px" height="45px" viewBox="0 0 55 45" enable-background="new 0 0 55 45" xml:space="preserve">
<g>
	<path fill="#345276" d="M45.72,22.276v-0.21h-0.062L42.09,10.072L27.45,4.654l-14.611,5.504L9.373,22.065H9.28v0.317l-0.018,0.059
		l0.018,0.016v20.542h6.977V28.268h11.103h0.774h10.608v14.731h6.978V22.352l0.018-0.018L45.72,22.276z M34.479,20.902
		c0,0.642-0.522,1.163-1.163,1.163h-11.63c-0.641,0-1.163-0.521-1.163-1.163v-6.203c0-0.641,0.522-1.163,1.163-1.163h11.63
		c0.641,0,1.163,0.521,1.163,1.163V20.902z"/>
	<rect x="27.888" y="29.043" fill="#345276" width="10.08" height="13.956"/>
	<path fill="#345276" d="M33.315,14.312h-11.63c-0.216,0-0.388,0.174-0.388,0.387v6.203c0,0.214,0.172,0.387,0.388,0.387h11.63
		c0.213,0,0.388-0.173,0.388-0.387v-6.203C33.703,14.486,33.528,14.312,33.315,14.312z"/>
	<rect x="17.033" y="29.043" fill="#345276" width="10.08" height="13.956"/>
</g>
<polygon fill="#345276" points="44.372,7.214 28.043,1.502 27.73,1.24 10.236,8.125 5.973,21.489 7.641,22.021 11.652,9.451 
	27.562,3.19 42.977,8.581 47.365,22.026 49.031,21.482 "/>
</svg>
