<?xml version="1.0" encoding="utf-8"?>
<!-- Generator: Adobe Illustrator 16.0.3, SVG Export Plug-In . SVG Version: 6.00 Build 0)  -->
<!DOCTYPE svg PUBLIC "-//W3C//DTD SVG 1.1//EN" "http://www.w3.org/Graphics/SVG/1.1/DTD/svg11.dtd">
<svg version="1.1" id="Layer_1" xmlns="http://www.w3.org/2000/svg" xmlns:xlink="http://www.w3.org/1999/xlink" x="0px" y="0px"
	 width="55px" height="45px" viewBox="0 0 55 45" enable-background="new 0 0 55 45" xml:space="preserve">
<path fill="#345276" d="M42.874,12.933C36.795,2.998,25.017-0.865,16.566,4.305C8.117,9.476,6.195,21.722,12.274,31.657
	c6.081,9.934,18.846,15.171,26.309,8.626c1.769-1.55,2.555-2.792,3.791-4.624c0.105-0.153,0.199-0.344,0.287-0.553
	c2.15-3.774-5.6-7.205-4.769-12.433c2.163-1.35,5.551,6.146,7.692,3.947c0.043-0.218,0.203-0.872,0.28-1.152
	C46.771,20.836,45.33,16.945,42.874,12.933z M11.353,17.905c0-2.081,1.61-3.765,3.587-3.765c1.987,0,3.598,1.684,3.598,3.765
	c0,2.092-1.611,3.776-3.598,3.776C12.963,21.681,11.353,19.997,11.353,17.905z M17.032,32.14c-1.977,0-3.587-1.685-3.587-3.776
	c0-2.081,1.61-3.765,3.587-3.765c1.987,0,3.598,1.684,3.598,3.765C20.63,30.455,19.019,32.14,17.032,32.14z M17.628,9.538
	c0-2.082,1.611-3.765,3.587-3.765c1.987,0,3.598,1.684,3.598,3.765c0,2.092-1.611,3.775-3.598,3.775
	C19.239,13.313,17.628,11.63,17.628,9.538z M26.444,39.46c-1.976,0-3.587-1.684-3.587-3.776c0-2.082,1.611-3.765,3.587-3.765
	c1.988,0,3.599,1.683,3.599,3.765C30.043,37.776,28.432,39.46,26.444,39.46z M31.674,13.313c-1.976,0-3.587-1.684-3.587-3.775
	c0-2.082,1.611-3.765,3.587-3.765c1.988,0,3.598,1.684,3.598,3.765C35.272,11.63,33.662,13.313,31.674,13.313z"/>
</svg>
