<?xml version="1.0" encoding="utf-8"?>
<!-- Generator: Adobe Illustrator 16.0.4, SVG Export Plug-In . SVG Version: 6.00 Build 0)  -->
<!DOCTYPE svg PUBLIC "-//W3C//DTD SVG 1.1//EN" "http://www.w3.org/Graphics/SVG/1.1/DTD/svg11.dtd">
<svg version="1.1" id="Layer_1" xmlns="http://www.w3.org/2000/svg" xmlns:xlink="http://www.w3.org/1999/xlink" x="0px" y="0px"
	 width="55px" height="45px" viewBox="0 0 55 45" enable-background="new 0 0 55 45" xml:space="preserve">
<circle fill="#365478" cx="28.012" cy="22.5" r="21.391"/>
<g>
	<path fill="#FFFFFF" d="M23.524,17.699c-2.296,0-4.383,0.73-6.052,1.983v-7.304c0-0.73-0.626-1.357-1.357-1.357h-1.669
		c-0.731,0-1.357,0.626-1.357,1.357v14.817c0,0.104,0,0.104,0,0.208c0,0.104,0,0.313,0,0.418c0,5.738,4.591,10.331,10.331,10.331
		s10.331-4.593,10.331-10.331C33.751,22.082,29.159,17.699,23.524,17.699z M23.524,34.081c-3.339,0-6.052-2.713-6.052-6.052
		c0-3.338,2.713-6.052,6.052-6.052c3.339,0,6.052,2.714,6.052,6.052C29.576,31.368,26.759,34.081,23.524,34.081z"/>
	<g>
		<path fill="#FFFFFF" d="M36.046,24.482c-0.73-5.949-5.635-10.018-11.583-10.018V11.23c7.618,0,13.878,5.739,14.713,13.148
			L36.046,24.482L36.046,24.482z"/>
	</g>
	<g>
		<path fill="#FFFFFF" d="M43.245,24.482C42.098,14.882,34.063,8.1,24.568,8.1V4.551c11.478,0,20.974,8.661,22.33,19.931H43.245z"/>
	</g>
</g>
</svg>
