<?xml version="1.0" encoding="utf-8"?>
<!-- Generator: Adobe Illustrator 16.0.3, SVG Export Plug-In . SVG Version: 6.00 Build 0)  -->
<!DOCTYPE svg PUBLIC "-//W3C//DTD SVG 1.1//EN" "http://www.w3.org/Graphics/SVG/1.1/DTD/svg11.dtd">
<svg version="1.1" id="Layer_1" xmlns="http://www.w3.org/2000/svg" xmlns:xlink="http://www.w3.org/1999/xlink" x="0px" y="0px"
	 width="55px" height="45px" viewBox="0 0 55 45" enable-background="new 0 0 55 45" xml:space="preserve">
<g>
	<path fill-rule="evenodd" clip-rule="evenodd" fill="#345276" d="M20.573,24.608c2.805,0.86,5.136,1.647,7.641,2.629
		c4.844,1.901,7.642,8.672,5.27,13.13c-0.518,0.975-2.46,1.616-3.761,1.643c-7.187,0.157-14.384,0.246-21.562-0.026
		c-2.172-0.082-6.024-1.185-6.132-2.156C1.683,36.676,1.81,32.721,3.48,30.3c1.588-2.298,4.087-2.795,6.987-3.902
		c1.685-0.645,3.524-1.02,3.979-1.711c0.768-1.165,0.551-1.397-0.763-3.184c-1.776-2.412-3.492-4.194-4.29-7.069
		c-1.087-3.918-0.058-9.281,3.648-10.839c2.588-1.088,6.344-1.091,8.936,0c3.698,1.557,4.878,7.127,3.649,10.994
		C24.403,18.446,20.345,22.356,20.573,24.608z"/>
	<path fill-rule="evenodd" clip-rule="evenodd" fill="#345276" d="M47.957,23.366c-2.174,0.855-8.004-1.319-7.111,2.317
		c1.375,0.442,3.796,1.186,5.092,1.801c2.33,1.103,4.582,1.837,5.67,3.729c1.457,2.53,1.693,5.619,1.42,8.62
		c-0.074,0.843-1.479,1.818-3.597,2.023c-3.366,0.322-11.452,0-14.759,0c1.865-3.86,2.486-10.038-4.195-15.442
		c-0.862-0.697,3.496,0.31,4.351-0.769c0.932-2.626-0.388-1.458-6.679-2.316c2.485-3.397,1.972-7.921,2.178-11.217
		c0.261-4.222,3.711-7.35,8.026-7.292c4.329,0.057,7.531,3.178,7.795,7.51C46.341,15.523,46.092,21.207,47.957,23.366z"/>
</g>
</svg>
