<?xml version="1.0" encoding="utf-8"?>
<!-- Generator: Adobe Illustrator 16.0.3, SVG Export Plug-In . SVG Version: 6.00 Build 0)  -->
<!DOCTYPE svg PUBLIC "-//W3C//DTD SVG 1.1//EN" "http://www.w3.org/Graphics/SVG/1.1/DTD/svg11.dtd">
<svg version="1.1" id="Layer_1" xmlns="http://www.w3.org/2000/svg" xmlns:xlink="http://www.w3.org/1999/xlink" x="0px" y="0px"
	 width="55px" height="45px" viewBox="0 0 55 45" enable-background="new 0 0 55 45" xml:space="preserve">
<g>
	<path fill="#345276" d="M14.495,21.534v11.274h0.061c0.601,1.26,6.142,2.246,12.894,2.246c6.753,0,12.294-0.986,12.895-2.246h0.06
		V21.321l-12.896,8.237L14.495,21.534z"/>
	<polygon fill="#345276" points="41.571,39.084 46.369,43.252 46.369,17.51 41.571,20.575 	"/>
	<path fill="#345276" d="M27.508,1.607L6.543,14.849l10.45,6.445l10.499,6.474l10.137-6.474l3.942-2.518l4.798-3.065l2.088-1.333
		L27.508,1.607z M27.501,15.967c-0.707,0-1.279-0.573-1.279-1.279s0.572-1.279,1.279-1.279s1.279,0.573,1.279,1.279
		S28.208,15.967,27.501,15.967z"/>
</g>
</svg>
