<?xml version="1.0" encoding="utf-8"?>
<!-- Generator: Adobe Illustrator 16.0.3, SVG Export Plug-In . SVG Version: 6.00 Build 0)  -->
<!DOCTYPE svg PUBLIC "-//W3C//DTD SVG 1.1//EN" "http://www.w3.org/Graphics/SVG/1.1/DTD/svg11.dtd">
<svg version="1.1" id="Layer_1" xmlns="http://www.w3.org/2000/svg" xmlns:xlink="http://www.w3.org/1999/xlink" x="0px" y="0px"
	 width="55px" height="45px" viewBox="0 0 55 45" enable-background="new 0 0 55 45" xml:space="preserve">
<path fill="#345276" d="M51.409,30.536v-3.14c0-1.378-1.117-2.496-2.495-2.496c-1.035,0-1.924,0.63-2.301,1.528
	c-0.71,0.4-1.193,1.15-1.193,2.022v2.085H30.307V18.282c0.76-0.049,1.365-0.666,1.365-1.438s-0.605-1.389-1.365-1.438v-1.144
	c0-0.571-0.383-1.078-0.973-1.425V7.728c0-0.594-0.486-1.097-1.169-1.301V1.001h-1.226h-0.105h-1.392v1.497h1.392v3.929
	c-0.682,0.204-1.168,0.707-1.168,1.301v5.109c-0.59,0.348-0.973,0.854-0.973,1.425v1.144c-0.759,0.049-1.365,0.666-1.365,1.438
	s0.606,1.389,1.365,1.438v12.254H9.616v-2.085c0-0.919-0.538-1.707-1.312-2.086c-0.394-0.863-1.257-1.464-2.267-1.464
	c-1.379,0-2.496,1.117-2.496,2.496v3.14v10.281v2.496h47.916V30.536H51.409z"/>
</svg>
