<?xml version="1.0" encoding="utf-8"?>
<!-- Generator: Adobe Illustrator 16.0.3, SVG Export Plug-In . SVG Version: 6.00 Build 0)  -->
<!DOCTYPE svg PUBLIC "-//W3C//DTD SVG 1.1//EN" "http://www.w3.org/Graphics/SVG/1.1/DTD/svg11.dtd">
<svg version="1.1" id="Layer_1" xmlns="http://www.w3.org/2000/svg" xmlns:xlink="http://www.w3.org/1999/xlink" x="0px" y="0px"
	 width="55px" height="45px" viewBox="0 0 55 45" enable-background="new 0 0 55 45" xml:space="preserve">
<path fill-rule="evenodd" clip-rule="evenodd" fill="#345276" d="M7.772,38.774c0,1.816,1.472,3.288,3.288,3.288h32.879
	c1.816,0,3.288-1.471,3.288-3.288V14.115c0-1.816-1.472-3.288-3.288-3.288h-6.576V5.896c0-1.816-1.471-3.288-3.288-3.288h-13.15
	c-1.817,0-3.288,1.471-3.288,3.288v4.932h-6.576c-1.816,0-3.288,1.471-3.288,3.288V38.774z M33.254,10.828H21.746V8.526
	c0-1.002,0.806-1.809,1.809-1.809h7.891c1.003,0,1.809,0.806,1.809,1.809V10.828z M19.445,22.335h3.945V18.39
	c0-1.003,0.805-1.809,1.808-1.809h4.604c1.003,0,1.808,0.806,1.808,1.809v3.945h3.945c1.003,0,1.809,0.806,1.809,1.808v4.603
	c0,1.003-0.806,1.809-1.809,1.809h-3.945V34.5c0,1.002-0.805,1.808-1.808,1.808h-4.604c-1.003,0-1.808-0.806-1.808-1.808v-3.945
	h-3.945c-1.003,0-1.809-0.806-1.809-1.809v-4.603C17.637,23.141,18.442,22.335,19.445,22.335z"/>
</svg>
