<?xml version="1.0" encoding="utf-8"?>
<!-- Generator: Adobe Illustrator 16.0.3, SVG Export Plug-In . SVG Version: 6.00 Build 0)  -->
<!DOCTYPE svg PUBLIC "-//W3C//DTD SVG 1.1//EN" "http://www.w3.org/Graphics/SVG/1.1/DTD/svg11.dtd">
<svg version="1.1" id="Layer_1" xmlns="http://www.w3.org/2000/svg" xmlns:xlink="http://www.w3.org/1999/xlink" x="0px" y="0px"
	 width="55px" height="45px" viewBox="0 0 55 45" enable-background="new 0 0 55 45" xml:space="preserve">
<g>
	<g>
		<path fill="#345276" d="M28.086,15.539c3.928,0,7.112-3.185,7.112-7.112s-3.184-7.112-7.112-7.112s-7.112,3.185-7.112,7.112
			S24.158,15.539,28.086,15.539z M36.949,38.733h-2.133V19.859c0-1.178-0.955-2.134-2.133-2.134H17.912
			c-1.179,0-2.134,0.956-2.134,2.134s0.956,2.134,2.134,2.134h2.79v16.74h-2.134c-1.178,0-2.133,0.956-2.133,2.134
			S17.39,43,18.568,43h18.381c1.179,0,2.134-0.955,2.134-2.133S38.128,38.733,36.949,38.733z"/>
	</g>
</g>
</svg>
