<?xml version="1.0" encoding="utf-8"?>
<!-- Generator: Adobe Illustrator 16.0.3, SVG Export Plug-In . SVG Version: 6.00 Build 0)  -->
<!DOCTYPE svg PUBLIC "-//W3C//DTD SVG 1.1//EN" "http://www.w3.org/Graphics/SVG/1.1/DTD/svg11.dtd">
<svg version="1.1" id="Layer_1" xmlns="http://www.w3.org/2000/svg" xmlns:xlink="http://www.w3.org/1999/xlink" x="0px" y="0px"
	 width="55px" height="45px" viewBox="0 0 55 45" enable-background="new 0 0 55 45" xml:space="preserve">
<path fill-rule="evenodd" clip-rule="evenodd" fill="#345276" d="M7.346,36.19c0,3.314,2.68,5.994,5.995,5.994
	c1.652,0,3.193-0.626,4.28-1.713l10.927-10.935l2.929,2.929c-0.394,1.438-0.017,3.048,1.122,4.196l4.248,4.248
	c1.694,1.687,4.409,1.704,6.079,0.034c1.67-1.67,1.654-4.383-0.034-6.08l-4.248-4.247c-1.146-1.139-2.757-1.515-4.195-1.122
	l-2.929-2.921l1.884-1.883c4.008,1.01,8.426-0.043,11.552-3.1c2.149-2.107,3.331-4.779,3.494-7.544V13.9
	c0-0.934-0.771-1.688-1.721-1.688c-0.472,0-0.9,0.189-1.217,0.488l-0.504,0.497l-1.731,1.695c-1.088,1.062-2.637,1.687-4.308,1.687
	c-1.66,0-3.125-0.728-4.213-1.798c-1.07-1.087-1.806-2.561-1.806-4.222c0-1.67,0.624-3.219,1.687-4.308l1.695-1.729l0.497-0.504
	c0.3-0.317,0.488-0.746,0.488-1.217c0-0.95-0.754-1.721-1.688-1.721h-0.146c-2.767,0.162-5.438,1.345-7.544,3.494
	c-3.057,3.126-4.102,7.545-3.092,11.544l-1.892,1.892l-7.904-7.912V7.93L9.915,5.362L7.346,7.93l2.569,5.139h2.156l7.914,7.904
	L9.059,31.908C7.972,32.995,7.346,34.537,7.346,36.19z M11.628,35.762c0-1.182,0.958-2.141,2.141-2.141
	c1.181,0,2.141,0.959,2.141,2.141c0,1.181-0.96,2.141-2.141,2.141C12.586,37.902,11.628,36.943,11.628,35.762z"/>
</svg>
