<?xml version="1.0" encoding="utf-8"?>
<!-- Generator: Adobe Illustrator 16.0.3, SVG Export Plug-In . SVG Version: 6.00 Build 0)  -->
<!DOCTYPE svg PUBLIC "-//W3C//DTD SVG 1.1//EN" "http://www.w3.org/Graphics/SVG/1.1/DTD/svg11.dtd">
<svg version="1.1" id="Layer_1" xmlns="http://www.w3.org/2000/svg" xmlns:xlink="http://www.w3.org/1999/xlink" x="0px" y="0px"
	 width="55px" height="45px" viewBox="0 0 55 45" enable-background="new 0 0 55 45" xml:space="preserve">
<g>
	<polygon fill="#345276" points="6.634,26.914 6.712,26.89 6.634,26.89 	"/>
	<path fill="#345276" d="M41.179,2.594l0.445-0.156l-0.407-1.16L29.673,4.67c-0.574-0.875-1.561-1.457-2.685-1.457
		c-1.774,0-3.211,1.438-3.211,3.211c0,0.103,0.015,0.202,0.025,0.302l-11.886,3.427l0.405,1.16l0.336-0.118L6.73,26.89H6.726
		c0.028,3.052,2.79,5.436,6.193,5.436s6.162-2.383,6.195-5.436h0.065l-5.997-15.877l10.964-3.104
		c0.382,0.724,1.035,1.282,1.824,1.547v26.465C15.197,36.088,6.619,38.86,6.619,42.264h40.736c0-3.404-8.578-6.175-19.35-6.343
		V9.456c1.271-0.427,2.193-1.615,2.193-3.031c0-0.21-0.022-0.416-0.062-0.615l10.559-3.047L34.743,18.52H34.74
		c0.027,3.052,2.789,5.436,6.193,5.436c3.402,0,6.161-2.383,6.194-5.436h0.065L41.179,2.594z M8.185,25.929l4.769-12.604
		l4.756,12.609L8.185,25.929z M36.198,17.559l4.769-12.604l4.756,12.609L36.198,17.559z"/>
	<path fill="#345276" d="M34.726,18.52h-0.078c0,0,0,0.019,0,0.024L34.726,18.52z"/>
</g>
</svg>
