<?xml version="1.0" encoding="utf-8"?>
<!-- Generator: Adobe Illustrator 16.0.3, SVG Export Plug-In . SVG Version: 6.00 Build 0)  -->
<!DOCTYPE svg PUBLIC "-//W3C//DTD SVG 1.1//EN" "http://www.w3.org/Graphics/SVG/1.1/DTD/svg11.dtd">
<svg version="1.1" id="Layer_1" xmlns="http://www.w3.org/2000/svg" xmlns:xlink="http://www.w3.org/1999/xlink" x="0px" y="0px"
	 width="55px" height="45px" viewBox="0 0 55 45" enable-background="new 0 0 55 45" xml:space="preserve">
<g id="County_Seat">
	<g>
		<g>
			<path fill="#345276" d="M27.503,6.059c-2.602,0-4.71,2.105-4.71,4.704c0,2.602,2.108,4.707,4.71,4.707
				c2.6,0,4.707-2.105,4.707-4.707C32.21,8.164,30.103,6.059,27.503,6.059z M37.481,34.279l-0.578-1.387l-8.864,3.692l4.605-18.071
				c2.506-1.669,4.162-4.518,4.162-7.748c0-5.131-4.174-9.306-9.304-9.306c-5.132,0-9.308,4.175-9.308,9.306
				c0,3.224,1.65,6.069,4.148,7.739l4.682,18.107L18.1,32.893l-0.578,1.387l8.026,3.343l-8.026,3.343l0.578,1.387l9.4-3.916
				l0.004,0.011l0.002-0.01l9.397,3.915l0.578-1.387l-8.027-3.343L37.481,34.279z M27.503,18.254c-1.488,0-2.872-0.441-4.039-1.192
				c-2.073-1.333-3.453-3.655-3.453-6.297c0-4.13,3.361-7.49,7.492-7.49c4.129,0,7.488,3.36,7.488,7.49
				c0,2.645-1.383,4.968-3.457,6.301C30.368,17.814,28.986,18.254,27.503,18.254z"/>
		</g>
	</g>
</g>
</svg>
