<?xml version="1.0" encoding="utf-8"?>
<!-- Generator: Adobe Illustrator 16.0.3, SVG Export Plug-In . SVG Version: 6.00 Build 0)  -->
<!DOCTYPE svg PUBLIC "-//W3C//DTD SVG 1.1//EN" "http://www.w3.org/Graphics/SVG/1.1/DTD/svg11.dtd">
<svg version="1.1" id="Layer_1" xmlns="http://www.w3.org/2000/svg" xmlns:xlink="http://www.w3.org/1999/xlink" x="0px" y="0px"
	 width="55px" height="45px" viewBox="0 0 55 45" enable-background="new 0 0 55 45" xml:space="preserve">
<path fill-rule="evenodd" clip-rule="evenodd" fill="#345276" d="M16.847,2.4c-1.869,0-3.382,1.514-3.382,3.383v8.466
	c0,1.185,0.49,2.259,1.276,3.028l3.679,3.679c-2.521,2.319-4.11,5.651-4.11,9.355C14.31,37.316,19.994,43,26.997,43
	c7.004,0,12.688-5.684,12.688-12.688c0-3.705-1.59-7.037-4.111-9.355l3.68-3.679c0.786-0.769,1.277-1.843,1.277-3.028V5.784
	c0-1.87-1.514-3.383-3.383-3.383H16.847z M26.997,23.546c0.298,0,0.541,0.186,0.626,0.448l1.54,3.781h3.95
	c0.354,0,0.65,0.381,0.65,0.728c0,0.211-0.102,0.397-0.263,0.507l-3.323,2.258c0,0,1.065,4.018,1.1,4.135
	c0.024,0.06,0.033,0.127,0.033,0.195c0,0.355-0.288,0.634-0.65,0.634c-0.162,0-0.312-0.059-0.423-0.152l-3.24-2.529l-3.239,2.529
	c-0.11,0.093-0.263,0.152-0.424,0.152c-0.362,0-0.65-0.279-0.65-0.634c0-0.068,0.009-0.136,0.033-0.195
	c0.034-0.118,1.117-4.118,1.117-4.118l-3.341-2.275c-0.161-0.11-0.263-0.296-0.263-0.507c0-0.347,0.295-0.728,0.65-0.728h3.951
	l1.539-3.781C26.455,23.732,26.701,23.546,26.997,23.546z M21.076,8.321v5.92c0,0.93-0.761,1.692-1.691,1.692
	c-0.93,0-1.691-0.762-1.691-1.692v-5.92c0-0.93,0.762-1.692,1.691-1.692C20.315,6.629,21.076,7.391,21.076,8.321z M28.688,8.321
	v7.612c0,0.93-0.761,1.691-1.691,1.691c-0.93,0-1.691-0.761-1.691-1.691V8.321c0-0.93,0.762-1.692,1.691-1.692
	C27.928,6.629,28.688,7.391,28.688,8.321z M36.301,8.321v5.92c0,0.93-0.762,1.692-1.691,1.692c-0.932,0-1.691-0.762-1.691-1.692
	v-5.92c0-0.93,0.76-1.692,1.691-1.692C35.539,6.629,36.301,7.391,36.301,8.321z"/>
</svg>
