<?xml version="1.0" encoding="utf-8"?>
<!-- Generator: Adobe Illustrator 16.0.3, SVG Export Plug-In . SVG Version: 6.00 Build 0)  -->
<!DOCTYPE svg PUBLIC "-//W3C//DTD SVG 1.1//EN" "http://www.w3.org/Graphics/SVG/1.1/DTD/svg11.dtd">
<svg version="1.1" id="Layer_1" xmlns="http://www.w3.org/2000/svg" xmlns:xlink="http://www.w3.org/1999/xlink" x="0px" y="0px"
	 width="55px" height="45px" viewBox="0 0 55 45" enable-background="new 0 0 55 45" xml:space="preserve">
<g>
	<path fill-rule="evenodd" clip-rule="evenodd" fill="#345276" d="M27.5,5.196c-9.542,0-17.304,7.762-17.304,17.304
		S17.958,39.804,27.5,39.804c9.541,0,17.304-7.763,17.304-17.304S37.041,5.196,27.5,5.196z M39.681,23.711
		c-1.143-0.482-2.091-1.231-3.243-1.766c0,0.695,0.033,1.33-0.005,1.96c-0.17,2.861-1.54,5.008-3.922,6.557
		c-4.485,2.915-11.188,1.223-13.573-4.485c-1.954-4.674,0.304-10.929,6.346-12.649c1.94-0.552,3.838-0.259,5.794,0.362
		c-0.224,0.86-0.438,1.682-0.661,2.541c-0.688-0.157-1.314-0.283-1.932-0.446c-1.437-0.379-2.784-0.031-4.007,0.653
		c-2.497,1.396-3.71,3.588-3.464,6.45c0.224,2.592,1.544,4.573,3.919,5.649c2.65,1.202,5.581,0.798,7.393-1.299
		c1.403-1.621,1.901-3.484,1.012-5.634c-1.302,0.771-2.566,1.52-3.873,2.292c-0.457-0.754-0.869-1.433-1.329-2.192
		c2.161-1.307,4.262-2.577,6.387-3.863c2.116,1.225,4.219,2.443,6.399,3.704C40.507,22.27,40.114,22.955,39.681,23.711z"/>
	<path fill-rule="evenodd" clip-rule="evenodd" fill="#345276" d="M27.5,1.105c-11.816,0-21.395,9.579-21.395,21.395
		S15.684,43.895,27.5,43.895S48.895,34.316,48.895,22.5S39.315,1.105,27.5,1.105z M27.5,41.33c-10.399,0-18.83-8.43-18.83-18.83
		c0-10.399,8.431-18.83,18.83-18.83c10.399,0,18.83,8.43,18.83,18.83C46.329,32.9,37.899,41.33,27.5,41.33z"/>
</g>
</svg>
