<?xml version="1.0" encoding="utf-8"?>
<!-- Generator: Adobe Illustrator 16.0.3, SVG Export Plug-In . SVG Version: 6.00 Build 0)  -->
<!DOCTYPE svg PUBLIC "-//W3C//DTD SVG 1.1//EN" "http://www.w3.org/Graphics/SVG/1.1/DTD/svg11.dtd">
<svg version="1.1" id="Layer_1" xmlns="http://www.w3.org/2000/svg" xmlns:xlink="http://www.w3.org/1999/xlink" x="0px" y="0px"
	 width="55px" height="45px" viewBox="0 0 55 45" enable-background="new 0 0 55 45" xml:space="preserve">
<g>
	<path fill="#345276" d="M26.747,24.309c-2.261,0-3.462,5.579-3.673,8.757c-0.211,2.401-0.023,4.732,1.295,4.732
		c2.166,0,3.365-5.933,3.602-8.969C28.207,26.615,28.041,24.309,26.747,24.309z"/>
	<path fill="#345276" d="M28.041,19.748c2.166,0,3.367-5.933,3.603-8.969c0.235-2.213,0.07-4.52-1.226-4.52
		c-2.26,0-3.461,5.579-3.672,8.757C26.535,17.417,26.723,19.748,28.041,19.748z"/>
	<path fill="#345276" d="M46.111,24.309c-2.26,0-3.46,5.579-3.672,8.757c-0.154,1.759-0.094,3.475,0.468,4.271
		c1.7-1.765,3.099-3.821,4.115-6.087c0.154-0.887,0.26-1.73,0.313-2.42C47.572,26.615,47.406,24.309,46.111,24.309z"/>
	<path fill="#345276" d="M39.756,32.359c0.188-3.602,2.307-8.922,6.521-8.922c1.107,0,1.93,0.394,2.523,1.032
		c0.06-0.648,0.094-1.305,0.094-1.969c0-6.423-2.834-12.18-7.314-16.102l-2.113,10.948c-0.354,1.883-0.258,2.072,1.884,2.26
		l-0.165,0.729h-6.969l0.166-0.729c1.977-0.188,2.118-0.353,2.518-2.26l1.648-8.333c0.283-1.459,0.095-1.648-1.201-1.695
		l-0.729-0.023l0.164-0.682c1.229-0.17,2.621-0.455,3.989-0.885C37.125,2.836,32.516,1.105,27.5,1.105
		c-5.002,0-9.6,1.721-13.243,4.597c1.862,0.855,2.412,3.325,2.222,5.782c-0.236,3.814-2.236,9.134-6.45,9.134
		c-1.851,0-2.93-1.039-3.462-2.546c-0.301,1.429-0.461,2.91-0.461,4.428c0,5.861,2.359,11.169,6.176,15.033
		c1.089-0.197,1.26-0.597,1.583-2.137l1.649-8.334c0.281-1.459,0.092-1.647-1.202-1.695l-0.729-0.024l0.164-0.682
		c1.531-0.212,3.32-0.589,4.992-1.224l-2.308,11.959c-0.354,1.883-0.259,2.072,1.884,2.26l-0.164,0.73h-4.979
		c3.792,3.423,8.816,5.508,14.328,5.508c5.557,0,10.617-2.119,14.421-5.592C40.094,37.402,39.55,34.943,39.756,32.359z
		 M24.062,14.31c0.188-3.602,2.307-8.922,6.521-8.922c3.108,0,4.003,3.061,3.768,6.097c-0.235,3.814-2.237,9.134-6.45,9.134
		C24.722,20.619,23.803,17.559,24.062,14.31z M14.853,20.336l0.165-0.729c1.979-0.188,2.119-0.353,2.52-2.26l1.648-8.333
		c0.281-1.459,0.092-1.648-1.202-1.695l-0.729-0.023l0.164-0.682c1.531-0.212,3.32-0.589,4.992-1.225l-2.308,11.959
		c-0.354,1.883-0.259,2.072,1.884,2.26l-0.164,0.729H14.853z M24.229,38.668c-3.179,0-4.098-3.06-3.838-6.309
		c0.188-3.602,2.307-8.922,6.521-8.922c3.108,0,4.003,3.06,3.767,6.097C30.442,33.349,28.441,38.668,24.229,38.668z M37.679,37.656
		l-0.165,0.73h-6.969l0.164-0.73c1.979-0.188,2.12-0.353,2.52-2.26l1.648-8.334c0.283-1.459,0.094-1.647-1.201-1.695l-0.729-0.024
		l0.164-0.682c1.529-0.212,3.319-0.589,4.991-1.224l-2.308,11.959C35.441,37.28,35.536,37.468,37.679,37.656z"/>
	<path fill="#345276" d="M9.518,10.914c-0.35,1.427-0.564,2.928-0.644,4.102c-0.212,2.401-0.022,4.732,1.296,4.732
		c2.164,0,3.365-5.933,3.602-8.969c0.186-1.735,0.12-3.523-0.539-4.216C11.808,7.837,10.559,9.302,9.518,10.914z"/>
</g>
</svg>
