<?xml version="1.0" encoding="utf-8"?>
<!-- Generator: Adobe Illustrator 16.0.3, SVG Export Plug-In . SVG Version: 6.00 Build 0)  -->
<!DOCTYPE svg PUBLIC "-//W3C//DTD SVG 1.1//EN" "http://www.w3.org/Graphics/SVG/1.1/DTD/svg11.dtd">
<svg version="1.1" id="Layer_1" xmlns="http://www.w3.org/2000/svg" xmlns:xlink="http://www.w3.org/1999/xlink" x="0px" y="0px"
	 width="55px" height="45px" viewBox="0 0 55 45" enable-background="new 0 0 55 45" xml:space="preserve">
<circle fill="#345276" cx="27.354" cy="22.508" r="22.007"/>
<g>
	<path fill="#FFFFFF" d="M35.853,16.341c-0.732-1.041-1.619-1.966-2.621-2.698c-1.657-1.195-3.661-1.927-6.013-1.927
		c-5.396,0-10.445,4.085-10.445,10.715c0,6.861,5.088,10.87,10.445,10.87c2.621,0,4.896-0.81,6.591-2.12
		c1.734-1.311,2.93-3.122,3.354-5.088H24.868v-3.7h17.577c0,1.812-0.309,4.278-1.273,6.398c-2.619,5.666-8.518,8.518-13.914,8.518
		c-8.441,0-14.993-6.514-14.993-14.878c0-8.518,6.745-14.724,15.032-14.724c6.129,0,11.641,3.7,13.684,8.634H35.853z"/>
</g>
</svg>
