<?xml version="1.0" encoding="utf-8"?>
<!-- Generator: Adobe Illustrator 16.0.3, SVG Export Plug-In . SVG Version: 6.00 Build 0)  -->
<!DOCTYPE svg PUBLIC "-//W3C//DTD SVG 1.1//EN" "http://www.w3.org/Graphics/SVG/1.1/DTD/svg11.dtd">
<svg version="1.1" id="Layer_1" xmlns="http://www.w3.org/2000/svg" xmlns:xlink="http://www.w3.org/1999/xlink" x="0px" y="0px"
	 width="55px" height="45px" viewBox="0 0 55 45" enable-background="new 0 0 55 45" xml:space="preserve">
<g>
	<g>
		<path fill="#345277" d="M54.032,19.914c0-8.433-6.837-15.268-15.268-15.268c-1.714,0-3.355,0.295-4.895,0.816
			c3.086,3.525,4.973,8.125,4.973,13.167c0,5.858-2.494,11.265-6.797,15.034l16.897,9.756c0,0-4.056-5.207-5.915-8.841
			C49.385,32.732,54.032,26.866,54.032,19.914z"/>
	</g>
	<path fill="#345276" d="M18.806,0.787c-9.836,0-17.838,8.003-17.838,17.841c0,7.892,5.286,14.938,12.855,17.135
		c0.314,0.091,0.571,0.318,0.701,0.618s0.119,0.643-0.031,0.934c-1.113,2.179-2.82,4.765-4.32,6.897l17.164-9.91
		c0.26-0.144,0.502-0.283,0.738-0.427c5.376-3.284,8.574-8.98,8.574-15.248C36.649,8.791,28.646,0.787,18.806,0.787z M13.097,20.213
		c-0.26,0.442-0.608,0.792-1.051,1.051c-0.443,0.258-0.926,0.387-1.45,0.387c-0.527,0-1.01-0.129-1.453-0.387
		c-0.441-0.259-0.79-0.609-1.05-1.051c-0.258-0.442-0.387-0.921-0.387-1.438c0-0.525,0.129-1.008,0.387-1.451
		c0.26-0.442,0.608-0.792,1.05-1.051c0.443-0.258,0.926-0.387,1.453-0.387c0.524,0,1.007,0.129,1.45,0.387
		c0.442,0.259,0.791,0.609,1.051,1.051c0.258,0.443,0.386,0.926,0.386,1.451C13.482,19.292,13.354,19.771,13.097,20.213z
		 M21.638,20.213c-0.256,0.442-0.607,0.792-1.049,1.051c-0.443,0.258-0.928,0.387-1.453,0.387c-0.524,0-1.007-0.129-1.451-0.387
		c-0.443-0.259-0.791-0.609-1.049-1.051c-0.259-0.442-0.389-0.921-0.389-1.438c0-0.525,0.13-1.008,0.389-1.451
		c0.258-0.442,0.605-0.792,1.049-1.051c0.444-0.258,0.927-0.387,1.451-0.387c0.525,0,1.01,0.129,1.453,0.387
		c0.441,0.259,0.793,0.609,1.049,1.051c0.258,0.443,0.388,0.926,0.388,1.451C22.025,19.292,21.896,19.771,21.638,20.213z
		 M30.181,20.213c-0.259,0.442-0.609,0.792-1.053,1.051c-0.439,0.258-0.924,0.387-1.449,0.387c-0.527,0-1.01-0.129-1.453-0.387
		c-0.441-0.259-0.79-0.609-1.05-1.051s-0.388-0.921-0.388-1.438c0-0.525,0.128-1.008,0.388-1.451c0.26-0.442,0.608-0.792,1.05-1.051
		c0.443-0.258,0.926-0.387,1.453-0.387c0.525,0,1.01,0.129,1.449,0.387c0.443,0.259,0.794,0.609,1.053,1.051
		c0.258,0.443,0.385,0.926,0.385,1.451C30.565,19.292,30.438,19.771,30.181,20.213z"/>
</g>
</svg>
