<?xml version="1.0" encoding="utf-8"?>
<!-- Generator: Adobe Illustrator 16.0.3, SVG Export Plug-In . SVG Version: 6.00 Build 0)  -->
<!DOCTYPE svg PUBLIC "-//W3C//DTD SVG 1.1//EN" "http://www.w3.org/Graphics/SVG/1.1/DTD/svg11.dtd">
<svg version="1.1" id="Layer_1" xmlns="http://www.w3.org/2000/svg" xmlns:xlink="http://www.w3.org/1999/xlink" x="0px" y="0px"
	 width="55px" height="45px" viewBox="0 0 55 45" enable-background="new 0 0 55 45" xml:space="preserve">
<g>
	<g>
		<path fill="#345276" d="M43.302,28.822l-1.757-3.043c-1.678,6.322-7.432,11.001-14.274,11.001c-5.763,0-10.754-3.321-13.189-8.144
			h4.381l-6.764-11.715L4.935,28.638l3.492,0c2.746,7.77,10.145,13.361,18.844,13.361c11.028,0,20-8.972,20-20
			c0-0.015-0.001-0.031-0.001-0.046L43.302,28.822z M11.697,14.499l1.588,2.749c1.985-5.825,7.497-10.033,13.985-10.033
			c5.411,0,10.133,2.933,12.706,7.284l-3.438,0l6.764,11.716L50.066,14.5l-4.273,0C42.819,7.18,35.646,1.998,27.271,1.998
			c-11.028,0-20,8.972-20,20c0,0.054,0.004,0.107,0.005,0.161L11.697,14.499z"/>
	</g>
</g>
</svg>
