<?xml version="1.0" encoding="utf-8"?>
<!-- Generator: Adobe Illustrator 16.0.3, SVG Export Plug-In . SVG Version: 6.00 Build 0)  -->
<!DOCTYPE svg PUBLIC "-//W3C//DTD SVG 1.1//EN" "http://www.w3.org/Graphics/SVG/1.1/DTD/svg11.dtd">
<svg version="1.1" id="Layer_1" xmlns="http://www.w3.org/2000/svg" xmlns:xlink="http://www.w3.org/1999/xlink" x="0px" y="0px"
	 width="55px" height="45px" viewBox="0 0 55 45" enable-background="new 0 0 55 45" xml:space="preserve">
<path fill-rule="evenodd" clip-rule="evenodd" fill="#345276" d="M21.772,18.848L8.5,37.054c-0.4,0.548-0.638,1.219-0.638,1.947
	c0,1.808,1.465,3.273,3.273,3.273h32.729c1.809,0,3.273-1.465,3.273-3.273c0-0.728-0.237-1.399-0.639-1.947L33.228,18.848V7.09
	h0.409c1.129,0,2.046-0.917,2.046-2.046c0-1.129-0.917-2.045-2.046-2.045H21.363c-1.129,0-2.046,0.917-2.046,2.045
	c0,1.129,0.917,2.046,2.046,2.046h0.409V18.848z M25.863,7.09h3.273v12.273l5.728,8.182H20.136l5.728-8.182V7.09z"/>
</svg>
