<?xml version="1.0" encoding="utf-8"?>
<!-- Generator: Adobe Illustrator 16.0.3, SVG Export Plug-In . SVG Version: 6.00 Build 0)  -->
<!DOCTYPE svg PUBLIC "-//W3C//DTD SVG 1.1//EN" "http://www.w3.org/Graphics/SVG/1.1/DTD/svg11.dtd">
<svg version="1.1" id="Layer_1" xmlns="http://www.w3.org/2000/svg" xmlns:xlink="http://www.w3.org/1999/xlink" x="0px" y="0px"
	 width="55px" height="45px" viewBox="0 0 55 45" enable-background="new 0 0 55 45" xml:space="preserve">
<path fill-rule="evenodd" clip-rule="evenodd" fill="#345276" d="M7.597,22.5c0,11.326,9.174,20.5,20.5,20.5s20.5-9.174,20.5-20.5
	s-9.174-20.5-20.5-20.5S7.597,11.173,7.597,22.5z M11.868,22.5c0-1.316,0.153-2.597,0.452-3.818l3.819,3.818l-0.854,5.125
	l3.417,3.417v4.689C14.567,32.792,11.868,27.958,11.868,22.5z M24.365,6.706c1.195-0.291,2.443-0.436,3.733-0.436
	c1.427,0,2.81,0.188,4.126,0.53l-0.709,1.179l0.854,0.854h2.562l0.709-0.709c0.598,0.317,1.161,0.658,1.708,1.042l-1.563,0.521
	l-1.708,1.708l1.708,0.854v0.854h-1.708v1.708c0,0,1.178,0.854,2.562,0.854c1.358,0,0.751-1.871,1.708-2.562
	c0.965-0.692,2.135-0.538,2.135-0.538l0.555,0.145c1.043,1.375,1.871,2.913,2.435,4.578v0.086c0,0-1.205-0.854-3.417-0.854
	c-2.212,0-4.271,0.854-4.271,0.854s-2.408,0.701-2.562,2.562c-0.265,3.203,0.854,4.271,0.854,4.271l4.271,2.563v8.311
	c-2.793,2.28-6.364,3.647-10.25,3.647c-1.837,0-3.596-0.299-5.245-0.862l4.391-10.242l-0.854-4.271c0,0-3.392-4.271-5.125-4.271
	s-2.562,2.562-2.562,2.562l-1.708-3.417l5.125-3.417l2.562-6.833L24.365,6.706z"/>
</svg>
