<?xml version="1.0" encoding="utf-8"?>
<!-- Generator: Adobe Illustrator 16.0.3, SVG Export Plug-In . SVG Version: 6.00 Build 0)  -->
<!DOCTYPE svg PUBLIC "-//W3C//DTD SVG 1.1//EN" "http://www.w3.org/Graphics/SVG/1.1/DTD/svg11.dtd">
<svg version="1.1" id="Layer_1" xmlns="http://www.w3.org/2000/svg" xmlns:xlink="http://www.w3.org/1999/xlink" x="0px" y="0px"
	 width="55px" height="45px" viewBox="0 0 55 45" enable-background="new 0 0 55 45" xml:space="preserve">
<path fill-rule="evenodd" clip-rule="evenodd" fill="#345276" d="M31.501,1.999h-3c-7.85,0-14.29,6.02-14.95,13.7
	c-4.78,2.51-8.05,7.521-8.05,13.3l0.01,0.05c-1.15,0.23-2.01,1.24-2.01,2.45c0,1.38,1.12,2.5,2.5,2.5h3.52c0.25,3.91,3.51,7,7.48,7
	c3.97,0,7.23-3.09,7.48-7h7.039c0.25,3.91,3.51,7,7.48,7c4.14,0,7.5-3.36,7.5-7.5c0-0.27-0.02-0.55-0.05-0.811
	c3.02-1.729,5.05-4.969,5.05-8.689v-6.8c0-1.22-0.98-2.2-2.2-2.2h-2.93C45.391,7.659,39.11,1.999,31.501,1.999z M27.501,7.049v9.95
	h-9C18.501,11.81,22.451,7.549,27.501,7.049z M32.501,16.999v-9.95c5.05,0.5,9,4.761,9,9.95H32.501z M19.501,33.499
	c0,1.38-1.12,2.5-2.5,2.5s-2.5-1.12-2.5-2.5s1.12-2.5,2.5-2.5S19.501,32.119,19.501,33.499z M41.501,33.499c0,1.38-1.12,2.5-2.5,2.5
	s-2.5-1.12-2.5-2.5s1.12-2.5,2.5-2.5S41.501,32.119,41.501,33.499z"/>
</svg>
