<?xml version="1.0" standalone="no"?>
<!DOCTYPE svg PUBLIC "-//W3C//DTD SVG 1.1//EN" "http://www.w3.org/Graphics/SVG/1.1/DTD/svg11.dtd" >
<!--
2015-6-8: Created.
-->
<svg xmlns="http://www.w3.org/2000/svg">
<metadata>
Created by FontForge 20120731 at Mon Jun  8 13:03:34 2015
 By root
Created by root with FontForge 2.0 (http://fontforge.sf.net)
</metadata>
<defs>
<font id="fontopengov" horiz-adv-x="512" >
  <font-face 
    font-family="fontopengov"
    font-weight="500"
    font-stretch="normal"
    units-per-em="512"
    panose-1="2 0 6 3 0 0 0 0 0 0"
    ascent="448"
    descent="-64"
    bbox="9.01074 33.6055 502.989 443.336"
    underline-thickness="25.6"
    underline-position="-51.2"
    unicode-range="U+0020-F11B"
  />
    <missing-glyph />
    <glyph glyph-name="space" unicode=" " horiz-adv-x="200" 
 />
    <glyph glyph-name="uniF117" unicode="&#xf117;" 
d="M502.989 262.619c0 -64.7168 -43.2598 -119.324 -102.447 -136.509c17.3057 -33.8291 55.0635 -82.3018 55.0635 -82.3018l-157.296 90.8193c40.0576 35.0859 63.2744 85.4199 63.2744 139.953c0 46.9365 -17.5664 89.7578 -46.2939 122.572
c14.3359 4.85059 29.6113 7.59668 45.5674 7.59668c78.4854 0 142.132 -63.6279 142.132 -142.131zM175.066 440.674c91.6016 0 166.103 -74.5098 166.103 -166.074c0 -58.3496 -29.7705 -111.374 -79.8164 -141.945c-2.19629 -1.33984 -4.44922 -2.63379 -6.87012 -3.97461
l-159.781 -92.2529c13.9639 19.8467 29.8545 43.9199 40.2158 64.2041c1.39648 2.70898 1.49805 5.90234 0.288086 8.69531s-3.60254 4.90527 -6.52539 5.75293c-70.4609 20.4521 -119.669 86.0439 -119.669 159.511c0 91.583 74.4922 166.084 166.056 166.084z
M121.921 259.835c2.39258 4.11523 3.58398 8.57422 3.59375 13.3867c0 4.8877 -1.19141 9.38379 -3.59375 13.5078c-2.41992 4.11426 -5.66895 7.37305 -9.7832 9.78418c-4.12402 2.40137 -8.62012 3.60254 -13.499 3.60254c-4.90527 0 -9.40137 -1.20117 -13.5254 -3.60254
c-4.11523 -2.41113 -7.35449 -5.66992 -9.77441 -9.78418c-2.40234 -4.12402 -3.60254 -8.62012 -3.60254 -13.5078c0 -4.8125 1.2002 -9.27148 3.60254 -13.3867c2.41992 -4.11426 5.66895 -7.37207 9.77441 -9.7832c4.12402 -2.40234 8.62012 -3.60254 13.5254 -3.60254
c4.87891 0 9.375 1.2002 13.499 3.60254c4.12402 2.41113 7.36328 5.66895 9.7832 9.7832zM201.43 259.835c2.40234 4.11523 3.60352 8.57422 3.6123 13.3867c0 4.8877 -1.20996 9.38379 -3.6123 13.5078c-2.38281 4.11426 -5.65918 7.37305 -9.76465 9.78418
c-4.12402 2.40137 -8.63867 3.60254 -13.5264 3.60254c-4.87793 0 -9.37402 -1.20117 -13.5078 -3.60254c-4.13281 -2.41113 -7.36328 -5.66992 -9.76465 -9.78418c-2.41113 -4.12402 -3.62109 -8.62012 -3.62109 -13.5078c0 -4.8125 1.20996 -9.27148 3.62109 -13.3867
c2.40137 -4.11426 5.6416 -7.37207 9.76465 -9.7832c4.13379 -2.40234 8.62988 -3.60254 13.5078 -3.60254c4.8877 0 9.40234 1.2002 13.5264 3.60254c4.11426 2.41113 7.38184 5.66895 9.76465 9.7832zM280.958 259.835c2.3916 4.11523 3.57422 8.57422 3.58398 13.3867
c0 4.8877 -1.18262 9.38379 -3.58398 13.5078c-2.41113 4.11426 -5.67871 7.37305 -9.80273 9.78418c-4.08691 2.40137 -8.60156 3.60254 -13.4893 3.60254c-4.90527 0 -9.40234 -1.20117 -13.5254 -3.60254c-4.11523 -2.41113 -7.35449 -5.66992 -9.77539 -9.78418
c-2.41992 -4.12402 -3.61133 -8.62012 -3.61133 -13.5078c0 -4.8125 1.19141 -9.27148 3.61133 -13.3867c2.4209 -4.11426 5.66992 -7.37207 9.77539 -9.7832c4.12305 -2.40234 8.62012 -3.60254 13.5254 -3.60254c4.8877 0 9.40234 1.2002 13.4893 3.60254
c4.13281 2.41113 7.3916 5.66895 9.80273 9.7832z" />
    <glyph glyph-name="uniF110" unicode="&#xf110;" 
d="M70.7207 238.546c0 105.443 85.4023 190.836 190.837 190.836s190.836 -85.4014 190.836 -190.836c0 -105.436 -85.4014 -190.837 -190.836 -190.837s-190.837 85.4014 -190.837 190.837zM110.48 238.546c0 -50.8096 25.125 -95.8096 63.6182 -123.169v43.6504
l-31.8096 31.8086l7.9502 47.71l-35.5508 35.542c-2.78418 -11.3672 -4.20801 -23.292 -4.20801 -35.542zM226.816 385.573l2.94141 -11.832l-23.8496 -63.6084l-47.71 -31.8096l15.9004 -31.8096s7.7168 23.8506 23.8496 23.8506s47.709 -39.7598 47.709 -39.7598
l7.9502 -39.7588l-40.876 -95.3438c15.3506 -5.24121 31.7256 -8.02441 48.8262 -8.02441c36.1748 0 69.418 12.7256 95.418 33.9502v77.3682l-39.7588 23.8594s-10.417 9.94141 -7.9502 39.7588c1.43359 17.3242 23.8496 23.8496 23.8496 23.8496
s19.168 7.9502 39.7598 7.9502s31.8086 -7.9502 31.8086 -7.9502v0.800781c-5.25 15.5 -12.958 29.8174 -22.667 42.6172l-5.16699 1.34961s-10.8916 1.43359 -19.875 -5.00781c-8.90918 -6.43262 -3.25781 -23.8506 -15.8994 -23.8506
c-12.8838 0 -23.8506 7.9502 -23.8506 7.9502v15.9004h15.9004v7.94922l-15.9004 7.9502l15.9004 15.9004l14.5498 4.84961c-5.0918 3.5752 -10.333 6.74902 -15.8994 9.7002l-6.60059 -6.60059h-23.8496l-7.9502 7.9502l6.60059 10.9756
c-12.251 3.18359 -25.126 4.93359 -38.4102 4.93359c-12.0078 0 -23.626 -1.34961 -34.75 -4.05859z" />
    <glyph glyph-name="uniF104" unicode="&#xf104;" 
d="M134.936 247.538l121.148 -74.6963l120.05 76.6787v-106.934h-0.558594c-5.59473 -11.7285 -57.1768 -20.9082 -120.041 -20.9082c-62.8545 0 -114.437 9.17969 -120.031 20.9082h-0.567383v104.951zM386.988 84.1631v172.303l44.665 28.5322v-239.635zM256.074 433.04
l195.017 -118.886l-19.4375 -12.4092l-44.665 -28.5322l-36.6963 -23.4404l-94.3662 -60.2676l-97.7363 60.2676l-97.2803 59.9971zM256.01 299.361c6.58105 0 11.9062 5.33496 11.9062 11.9062c0 6.57227 -5.3252 11.9072 -11.9062 11.9072
c-6.58203 0 -11.9072 -5.33496 -11.9072 -11.9072c0 -6.57129 5.3252 -11.9062 11.9072 -11.9062z" />
    <glyph glyph-name="uniF100" unicode="&#xf100;" 
d="M425.611 240.631l0.167969 -0.540039l-0.167969 -0.167969v-192.204h-64.959v137.132h-98.75h-7.20605h-103.358v-137.132h-64.9492v191.227l-0.167969 0.149414l0.167969 0.548828v2.95117h0.865234l32.2656 110.844l136.015 51.2373l136.285 -50.4365l33.2148 -111.653
h0.577148v-1.95508zM320.968 253.422v57.7441c0 5.97656 -4.85938 10.8262 -10.8262 10.8262h-108.265c-5.9668 0 -10.8262 -4.85938 -10.8262 -10.8262v-57.7441c0 -5.97656 4.85938 -10.8271 10.8262 -10.8271h108.265c5.9668 0 10.8262 4.85059 10.8262 10.8271z
M259.612 47.7188v129.917h93.835v-129.917h-93.835zM310.133 314.769c1.98242 0 3.61133 -1.62012 3.61133 -3.60254v-57.7441c0 -1.99219 -1.62891 -3.60352 -3.61133 -3.60352h-108.266c-2.01074 0 -3.61133 1.61133 -3.61133 3.60352v57.7441
c0 1.98242 1.60059 3.60254 3.61133 3.60254h108.266zM158.562 47.7188v129.917h93.8359v-129.917h-93.8359zM413.062 380.844l43.3711 -132.821l-15.5088 -5.06445l-40.8477 125.161l-143.5 50.1846l-148.107 -58.2842l-37.3389 -117.015l-15.5273 4.95215l39.6846 124.406
l162.853 64.0938l2.91406 -2.43945z" />
    <glyph glyph-name="uniF111" unicode="&#xf111;" 
d="M293.246 429.391c70.832 0 129.303 -52.6895 138.416 -121.018h27.2764c11.3564 0 20.4795 -9.12305 20.4795 -20.4805v-63.3018c0 -34.6299 -18.8975 -64.791 -47.0107 -80.8867c0.279297 -2.42969 0.46582 -5.03613 0.46582 -7.5498
c0 -38.5391 -31.2793 -69.8174 -69.8184 -69.8174c-36.957 0 -67.3047 28.7646 -69.6318 65.1631h-65.5273c-2.32715 -36.3984 -32.6748 -65.1631 -69.6318 -65.1631s-67.3047 28.7646 -69.6318 65.1631h-32.7676c-12.8467 0 -23.2734 10.4268 -23.2734 23.2734
c0 11.2637 8.00586 20.666 18.7119 22.8066l-0.09375 0.46582c0 53.7969 30.4414 100.445 74.9385 123.811c6.14355 71.4941 66.0947 127.534 139.171 127.534h27.9277zM256.01 382.38c-47.0117 -4.6543 -83.7822 -44.3203 -83.7822 -92.625h83.7822v92.625z
M302.555 289.755h83.7822c0 48.3047 -36.7715 87.9707 -83.7822 92.625v-92.625zM181.536 136.154c0 12.8467 -10.4258 23.2734 -23.2725 23.2734s-23.2725 -10.4268 -23.2725 -23.2734c0 -12.8457 10.4258 -23.2725 23.2725 -23.2725s23.2725 10.4268 23.2725 23.2725z
M386.337 136.154c0 12.8467 -10.4268 23.2734 -23.2734 23.2734s-23.2725 -10.4268 -23.2725 -23.2734c0 -12.8457 10.4258 -23.2725 23.2725 -23.2725s23.2734 10.4268 23.2734 23.2725z" />
    <glyph glyph-name="uniF101" unicode="&#xf101;" 
d="M399.118 327.605c22.8633 -37.3477 36.2773 -73.5693 27.834 -116.689c-0.716797 -2.60645 -2.20605 -8.69434 -2.60645 -10.7236c-19.9307 -20.4707 -51.4697 49.3096 -71.6055 36.7422c-7.73633 -48.668 64.4092 -80.6074 44.3945 -115.739
c-0.818359 -1.94629 -1.69434 -3.72363 -2.6709 -5.14844c-11.5068 -17.0537 -18.8232 -28.6162 -35.291 -43.0449c-69.4736 -60.9277 -188.305 -12.1768 -244.913 80.2998c-56.5898 92.4863 -38.6982 206.485 39.9551 254.623
c78.6709 48.1279 188.313 12.167 244.903 -80.3193zM105.687 281.32c0 -19.4746 14.9873 -35.1504 33.3916 -35.1504c18.4971 0 33.4941 15.6758 33.4941 35.1504c0 19.373 -14.9971 35.0488 -33.4941 35.0488c-18.4043 0 -33.3916 -15.6758 -33.3916 -35.0488z
M158.553 148.806c18.4971 0 33.4941 15.6855 33.4941 35.1514c0 19.3721 -14.9971 35.0488 -33.4941 35.0488c-18.4043 0 -33.3916 -15.6768 -33.3916 -35.0488c0 -19.4658 14.9873 -35.1514 33.3916 -35.1514zM164.101 359.21
c0 -19.4746 14.9971 -35.1416 33.3916 -35.1416c18.4971 0 33.4941 15.667 33.4941 35.1416c0 19.3721 -14.9971 35.0488 -33.4941 35.0488c-18.3945 0 -33.3916 -15.667 -33.3916 -35.0488zM246.17 80.6631c18.5059 0 33.5029 15.6768 33.5029 35.1514
c0 19.3818 -14.9971 35.0488 -33.5029 35.0488c-18.3955 0 -33.3916 -15.667 -33.3916 -35.0488c0 -19.4746 14.9961 -35.1514 33.3916 -35.1514zM294.856 324.068c18.5059 0 33.4941 15.667 33.4941 35.1416c0 19.3721 -14.9883 35.0488 -33.4941 35.0488
c-18.3955 0 -33.3916 -15.667 -33.3916 -35.0488c0 -19.4658 14.9961 -35.1416 33.3916 -35.1416z" />
    <glyph glyph-name="uniF11A" unicode="&#xf11a;" 
d="M49.7754 238.471c-7.62939e-06 136.577 68.2884 204.865 204.865 204.865c136.577 0 204.865 -68.2884 204.865 -204.865c0 -136.577 -68.2884 -204.865 -204.865 -204.865c-136.577 -7.62939e-06 -204.865 68.2884 -204.865 204.865zM333.759 295.88h47.7373
c-9.64786 23.3006 -26.2544 42.5215 -49.8197 57.6629c-23.5652 15.1414 -49.4206 22.7121 -77.566 22.7121c-39.0189 0 -72.096 -13.04 -99.2314 -39.12c-27.1354 -26.08 -40.7031 -58.7291 -40.7031 -97.9474c0 -38.9439 13.4429 -71.7632 40.3288 -98.4579
c26.8859 -26.6947 59.9667 -40.0421 99.2425 -40.0421c26.558 0 51.8679 6.90408 75.9296 20.7122s41.9273 33.3357 53.5967 58.5827c7.90039 17.3724 11.8506 37.2256 11.8506 59.5596h-163.626v-34.4443h114.465c-4.08179 -18.9254 -14.4893 -34.7135 -31.2227 -47.3643
c-17.0224 -13.1569 -37.4746 -19.7354 -61.3564 -19.7354c-26.3348 0 -49.1241 9.21671 -68.3678 27.6501s-28.8656 42.9465 -28.8656 73.5394c0 29.715 9.627 53.7682 28.881 72.1598c19.254 18.3915 42.0381 27.5873 68.3524 27.5873
c20.735 0 39.3935 -5.97949 55.9756 -17.9385c9.23917 -6.7486 17.3723 -15.1207 24.3994 -25.1162z" />
    <glyph glyph-name="uniF10D" unicode="&#xf10d;" 
d="M248.041 111.867c0 -8.76855 7.1582 -15.9463 15.918 -15.918h163.421c11.0039 0 19.9316 -8.92773 19.9316 -19.9316c0 -11.0029 -8.92773 -19.9307 -19.9316 -19.9307h-342.76c-11.0039 0 -19.9316 8.9375 -19.9316 19.9307c0 11.0039 8.92773 19.9316 19.9316 19.9316
h83.6699c8.76855 0 15.9463 7.16797 15.9463 15.9365v31.8838h-103.778c-8.68457 0 -15.7881 7.17773 -15.7881 15.9463c0 4.46875 1.84375 8.51758 4.78516 11.4043l59.625 60.332h-24.707c-8.68457 0 -15.7881 7.16797 -15.7881 15.9365
c0 4.46875 1.84375 8.52734 4.79492 11.4131l59.624 60.332h-24.7061c-8.68555 0 -15.7881 7.33594 -15.7881 16.3379c0 4.54297 1.84277 8.68555 4.78516 11.6367l83.6143 86.8066c6.21777 6.37695 16.2627 6.37695 22.4814 0l83.7725 -86.9648
c2.87598 -2.95117 4.62598 -7.01953 4.62598 -11.4883c0 -9.00098 -7.09277 -16.3369 -15.7881 -16.3369h-24.7803l59.8574 -60.5c2.88574 -2.87598 4.63574 -6.86035 4.63574 -11.2451c0 -8.75977 -7.08398 -15.9375 -15.7881 -15.9375h-24.7812l59.8672 -60.5
c2.86719 -2.87598 4.61719 -6.86035 4.61719 -11.2451c0 -8.76855 -7.08398 -15.9463 -15.7881 -15.9463h-95.7998v-31.8838z" />
    <glyph glyph-name="uniF11B" unicode="&#xf11b;" 
d="M61.6357 238.546c0 132.753 66.377 199.13 199.131 199.13c132.754 -0.000213623 199.131 -66.3768 199.131 -199.13c0 -132.754 -66.377 -199.131 -199.131 -199.131s-199.131 66.377 -199.131 199.131zM218.987 283.238c-21.1664 0 -39.946 -6.15332 -56.3389 -18.46
v67.9941c0 3.39865 -1.25505 6.35361 -3.76515 8.8649s-5.46599 3.76694 -8.86766 3.76694h-15.5361c-3.40279 0 -6.35895 -1.2547 -8.86849 -3.7641c-2.50954 -2.50943 -3.76432 -5.46533 -3.76432 -8.86774v-137.934v-1.93555v-3.8916
c0 -26.7097 9.34999 -49.4157 28.05 -68.1182c18.7 -18.7025 41.4073 -28.0537 68.1219 -28.0537c26.7151 0 49.4227 9.35122 68.1227 28.0537c18.7001 18.7024 28.0501 41.4085 28.0501 68.1182c0 26.539 -9.26605 48.8782 -27.7982 67.0175
c-18.5321 18.1393 -41.0008 27.209 -67.4059 27.209zM218.987 130.737c-15.5416 0 -28.8168 5.50429 -39.8256 16.5129s-16.5133 24.2836 -16.5133 39.825c0 15.5381 5.50468 28.8125 16.5141 39.823c11.0094 11.0106 24.2843 16.5158 39.8248 16.5158
c15.5404 0 28.8152 -5.50526 39.8243 -16.5158c11.0091 -11.0105 16.5136 -24.2849 16.5136 -39.8231c0 -15.4313 -5.5975 -28.6788 -16.7925 -39.7424c-11.195 -11.0636 -24.3768 -16.5955 -39.5454 -16.5955zM335.556 220.095v0l29.1377 0.967773
c-3.90652 34.6613 -18.8899 63.726 -44.9501 87.1942c-26.0602 23.4682 -56.7318 35.2023 -92.0148 35.2023v-30.1055c27.9061 0 52.0108 -8.6734 72.3141 -26.0202c20.3033 -17.347 32.141 -39.7599 35.5131 -67.2386zM402.571 220.095h34.0068
c-6.33875 52.6826 -29.2687 96.7766 -68.7899 132.282s-85.8819 53.2581 -139.082 53.2581v-33.0381c44.5272 0 83.3115 -14.3265 116.353 -42.9794s52.2122 -65.1605 57.5122 -109.523z" />
    <glyph glyph-name="uniF10B" unicode="&#xf10b;" 
d="M256.028 391.597c24.2031 0 43.8174 -19.5957 43.8174 -43.79c0 -24.2227 -19.6143 -43.8184 -43.8174 -43.8184c-24.2227 0 -43.8467 19.5957 -43.8467 43.8184c0 24.1943 19.624 43.79 43.8467 43.79zM348.914 128.894l-74.7246 -31.1299l74.7246 -31.1201
l-5.38086 -12.9111l-87.4775 36.4443l-0.0185547 -0.0927734l-0.0371094 0.102539l-87.5059 -36.4541l-5.37988 12.9111l74.7148 31.1201l-74.7148 31.1211l5.37988 12.9111l83.0742 -34.6113l-43.585 168.56c-23.2539 15.5469 -38.6143 42.0312 -38.6143 72.0439
c0 47.7646 38.875 86.6299 86.6494 86.6299c47.7559 0 86.6123 -38.8652 86.6123 -86.6299c0 -30.0684 -15.416 -56.5908 -38.7451 -72.127l-42.8682 -168.225l82.5156 34.3691zM256.028 278.072c13.8047 0 26.6699 4.0957 37.5244 11.0586
c19.3076 12.4092 32.1816 34.0342 32.1816 58.6572c0 38.4463 -31.2695 69.7246 -69.7061 69.7246c-38.4561 0 -69.7441 -31.2783 -69.7441 -69.7246c0 -24.5947 12.8467 -46.2109 32.1445 -58.6201c10.8633 -6.99121 23.7471 -11.0957 37.5996 -11.0957z" />
    <glyph glyph-name="uniF109" unicode="&#xf109;" 
d="M68.3848 111.104c0 15.3877 5.82715 29.7422 15.9463 39.8613l101.711 101.795l-73.6719 73.5791h-20.0703l-23.915 47.8389l23.915 23.9062l47.8115 -23.9062v-20.1816l73.5791 -73.6533l17.6123 17.6123c-9.40234 37.2275 0.326172 78.3643 28.7842 107.464
c19.6045 20.0059 44.4697 31.0186 70.2275 32.5264h1.35938c8.69434 0 15.7139 -7.17773 15.7139 -16.0215c0 -4.38379 -1.75098 -8.37793 -4.54297 -11.3291l-4.62695 -4.69141l-15.7793 -16.0957c-9.89551 -10.1377 -15.7041 -24.5566 -15.7041 -40.1035
c0 -15.4619 6.85156 -29.1836 16.8125 -39.3027c10.1279 -9.96094 23.7656 -16.7373 39.2188 -16.7373c15.5557 0 29.9756 5.81738 40.1035 15.7041l16.1143 15.7793l4.69238 4.62598c2.9502 2.7832 6.93457 4.54297 11.3291 4.54297
c8.84277 0 16.0205 -7.01855 16.0205 -15.7139v-1.35938c-1.51758 -25.7393 -12.5205 -50.6133 -32.5264 -70.2275c-29.0996 -28.458 -70.2275 -38.2598 -107.538 -28.8584l-17.5381 -17.5283l27.2656 -27.1924c13.3867 3.6582 28.3838 0.158203 39.0518 -10.4443
l39.5449 -39.5361c15.7139 -15.7969 15.8633 -41.0527 0.316406 -56.5986c-15.5459 -15.5469 -40.8203 -15.3887 -56.5898 0.316406l-39.5449 39.5449c-10.6025 10.6865 -14.1123 25.6738 -10.4443 39.0605l-27.2666 27.2666l-101.721 -101.795
c-10.1191 -10.1191 -24.4639 -15.9463 -39.8428 -15.9463c-30.8594 0 -55.8076 24.9482 -55.8076 55.7988zM108.246 115.088c0 -10.9932 8.91797 -19.9209 19.9307 -19.9307c10.9941 0 19.9307 8.9375 19.9307 19.9307c0 11.0039 -8.93652 19.9316 -19.9307 19.9316
c-11.0127 0 -19.9307 -8.92773 -19.9307 -19.9316z" />
    <glyph glyph-name="uniF106" unicode="&#xf106;" 
d="M72.3506 87.0498h0.00878906v229.543c0 16.915 13.7031 30.6084 30.6084 30.6084h61.2168v45.9121c0 16.915 13.6934 30.6084 30.6084 30.6084h122.414c16.915 0 30.6084 -13.7031 30.6084 -30.6084v-45.9023h61.2168c16.9053 0 30.6084 -13.7031 30.6084 -30.6084
v-229.553c0 -16.915 -13.7031 -30.6084 -30.6084 -30.6084h-306.073c-16.9053 0 -30.6084 13.7021 -30.6084 30.6084zM309.564 347.201h0.00976562v21.4297c0 9.33691 -7.50391 16.8398 -16.8408 16.8398h-73.458c-9.33691 0 -16.8398 -7.5127 -16.8398 -16.8398v-21.4297
h107.129zM181.016 240.081c-9.33691 0 -16.8311 -7.50293 -16.8408 -16.8301v-42.8506c0 -9.33691 7.50391 -16.8398 16.8408 -16.8398h36.7236v-36.7246c0 -9.32715 7.49414 -16.8301 16.8311 -16.8301h42.8594c9.33691 0 16.8311 7.50293 16.8311 16.8301v36.7246h36.7236
c9.33691 0 16.8408 7.50293 16.8408 16.8398v42.8506c0 9.32715 -7.50391 16.8301 -16.8408 16.8301h-36.7236v36.7246c0 9.33691 -7.49414 16.8408 -16.8311 16.8408h-42.8594c-9.33691 0 -16.8311 -7.50391 -16.8311 -16.8408v-36.7246h-36.7236z" />
    <glyph glyph-name="uniF102" unicode="&#xf102;" 
d="M191.516 218.922c26.1123 -8.00586 47.8115 -15.332 71.1309 -24.4736c45.0938 -17.6963 71.1406 -80.7285 49.0596 -122.229c-4.82227 -9.07617 -22.9004 -15.043 -35.0117 -15.2949c-66.9043 -1.46094 -133.902 -2.29004 -200.723 0.242188
c-20.2197 0.763672 -56.0781 11.0312 -57.084 20.0703c-3.2207 29.3428 -2.03809 66.1602 13.5078 88.6973c14.7832 21.3926 38.0459 26.0186 65.043 36.3242c15.6855 6.00391 32.8047 9.49512 37.041 15.9277c7.14941 10.8447 5.12891 13.0049 -7.10352 29.6396
c-16.5322 22.4541 -32.5068 39.043 -39.9355 65.8066c-10.1191 36.4727 -0.540039 86.3975 33.959 100.901c24.0928 10.1279 59.0576 10.1562 83.1865 0c34.4248 -14.4941 45.4102 -66.3467 33.9688 -102.345c-11.3848 -35.9053 -49.1611 -72.3037 -47.0391 -93.2676z
M446.437 230.483c-20.2383 -7.95898 -74.5107 12.2793 -66.1973 -21.5684c12.7998 -4.11523 35.3369 -11.041 47.4014 -16.7656c21.6904 -10.2686 42.6543 -17.1016 52.7832 -34.7139c13.5635 -23.5518 15.7598 -52.3076 13.2188 -80.2441
c-0.689453 -7.84766 -13.7686 -16.9248 -33.4854 -18.833c-31.334 -2.99707 -106.607 0 -137.393 0c17.3613 35.9336 23.1426 93.4453 -39.0518 143.751c-8.02441 6.48828 32.5449 -2.88574 40.5039 7.15918c8.67578 24.4453 -3.61133 13.5723 -62.1748 21.5596
c23.1328 31.623 18.3574 73.7373 20.2744 104.42c2.42969 39.3027 34.5469 68.4219 74.7148 67.8818c40.2988 -0.530273 70.1074 -29.584 72.5645 -69.9111c1.79688 -29.7236 -0.521484 -82.6367 16.8408 -102.735z" />
    <glyph glyph-name="uniF116" unicode="&#xf116;" 
d="M248.99 221.705c12.0459 0 13.5908 -21.4668 11.3945 -42.0771c-2.20605 -28.2617 -13.3682 -83.4932 -33.5312 -83.4932c-12.2695 0 -14.0195 21.6992 -12.0557 44.0508c1.96387 29.584 13.1445 81.5195 34.1924 81.5195zM261.036 264.164
c-12.2695 0 -14.0195 21.6992 -12.0557 44.0508c1.96484 29.584 13.1445 81.5195 34.1836 81.5195c12.0645 0 13.6006 -21.4756 11.4131 -42.0771c-2.19727 -28.2627 -13.3779 -83.4932 -33.541 -83.4932zM429.252 221.705c12.0547 0 13.5996 -21.4668 11.3936 -42.0859
c-0.493164 -6.42383 -1.47949 -14.2715 -2.91309 -22.5283c-9.45801 -21.0947 -22.4814 -40.2334 -38.3076 -56.6641c-5.23145 7.41016 -5.79004 23.3838 -4.35645 39.7588c1.97363 29.584 13.1445 81.5195 34.1836 81.5195zM370.092 146.768
c-1.91699 -24.0547 3.14648 -46.9463 20.1543 -55.3242c-35.4111 -32.3311 -82.5156 -52.0566 -134.246 -52.0566c-51.3115 0 -98.0811 19.4092 -133.381 51.2744h46.3506l1.52637 6.7959c-19.9492 1.75 -20.834 3.50977 -17.5381 21.0381l21.4854 111.328
c-15.5654 -5.91211 -32.2188 -9.4209 -46.4717 -11.3945l-1.52637 -6.34863l6.78613 -0.223633c12.0459 -0.447266 13.8057 -2.19727 11.1895 -15.7793l-15.3506 -77.582c-3.00684 -14.3359 -4.59863 -18.0596 -14.7363 -19.8936
c-35.5322 35.9707 -57.4922 85.3838 -57.4922 139.944c0 14.1309 1.48926 27.918 4.29102 41.2197c4.95215 -14.0283 14.9971 -23.7002 32.2285 -23.7002c39.2285 0 57.8467 49.5244 60.043 85.0293c1.76855 22.8721 -3.35156 45.8652 -20.6846 53.8252
c33.9131 26.7725 76.7158 42.7939 123.28 42.7939c46.6943 0 89.5996 -16.1143 123.55 -43.0361c-12.7344 -4.00293 -25.6924 -6.65625 -37.1338 -8.23828l-1.52637 -6.34961l6.78613 -0.213867c12.0645 -0.4375 13.8145 -2.19727 11.1807 -15.7783l-15.3418 -77.5732
c-3.72363 -17.752 -5.03613 -19.2881 -23.4404 -21.0381l-1.54492 -6.78711h64.875l1.53613 6.78711c-19.9404 1.75 -20.834 3.50879 -17.5381 21.0381l19.6699 101.916c41.7041 -36.5107 68.0859 -90.1025 68.0859 -149.895c0 -6.18164 -0.316406 -12.2979 -0.875 -18.3301
c-5.51953 5.93945 -13.1816 9.60742 -23.4863 9.60742c-39.2285 0 -58.9541 -49.5244 -60.7051 -83.0557zM223.995 314.787c-2.41113 -30.2451 6.14453 -58.7314 35.7383 -58.7314c39.2188 0 57.8555 49.5244 60.043 85.0293
c2.1875 28.2627 -6.14355 56.7578 -35.0762 56.7578c-39.2285 0 -58.9551 -49.5244 -60.7051 -83.0557zM138.268 258.69v-0.00976562h64.8848l1.52637 6.78711c-19.9492 1.75 -20.833 3.50879 -17.5381 21.0381l21.4854 111.327
c-15.5645 -5.91992 -32.2188 -9.42969 -46.4707 -11.4033l-1.52734 -6.34863l6.78711 -0.213867c12.0459 -0.4375 13.8047 -2.19727 11.1895 -15.7793l-15.3418 -77.5723c-3.73242 -17.7529 -5.03613 -19.2891 -23.459 -21.0391zM225.55 88.0361
c39.21 0 57.8379 49.5146 60.0439 85.0293c2.19727 28.2715 -6.13477 56.7578 -35.0674 56.7578c-39.2285 0 -58.9541 -49.5244 -60.7051 -83.0557c-2.41992 -30.2461 6.13477 -58.7314 35.7285 -58.7314zM350.757 97.457c-19.9492 1.75 -20.833 3.5 -17.5469 21.0381
l21.4854 111.328c-15.5654 -5.91211 -32.2285 -9.4209 -46.4619 -11.3945l-1.52637 -6.34863l6.78613 -0.223633c12.0547 -0.447266 13.8145 -2.19727 11.1797 -15.7793l-15.3408 -77.582c-3.72363 -17.752 -5.03613 -19.2881 -23.459 -21.0381l-1.52734 -6.7959h64.876z
M88.6035 346.4c9.69141 15.0068 21.3184 28.6445 34.584 40.5039c6.13477 -6.45117 6.74902 -23.0957 5.01758 -39.2471c-2.20703 -28.2627 -13.3867 -83.4932 -33.5312 -83.4932c-12.2695 0 -14.0381 21.6992 -12.0654 44.0508
c0.745117 10.9287 2.7373 24.9014 5.99512 38.1855z" />
    <glyph glyph-name="uniF118" unicode="&#xf118;" 
d="M256 399.63c88.8184 0 161.085 -72.2666 161.085 -161.084c0 -88.8184 -72.2666 -161.085 -161.085 -161.085c-88.8271 0 -161.085 72.2568 -161.085 161.085c0 88.8271 72.2578 161.084 161.085 161.084zM369.394 227.272
c4.03125 7.03711 7.68945 13.4141 11.5527 20.1631c-20.2939 11.7393 -39.8701 23.0771 -59.5684 34.4814c-19.7822 -11.9717 -39.3408 -23.7949 -59.457 -35.9619c4.28223 -7.06543 8.11719 -13.3857 12.3711 -20.4053c12.167 7.18652 23.9336 14.1592 36.0547 21.3369
c8.27539 -20.0146 3.63965 -37.3574 -9.4209 -52.4473c-16.8682 -19.5215 -44.1533 -23.2822 -68.8223 -12.0928c-22.1094 10.0166 -34.3975 28.458 -36.4824 52.5869c-2.29004 26.6426 9.00195 47.0479 32.2471 60.0439c11.3848 6.36719 23.9238 9.60645 37.3018 6.07812
c5.75293 -1.5166 11.5801 -2.69043 17.9844 -4.15137c2.07617 7.99609 4.06836 15.6484 6.15332 23.6543c-18.208 5.78125 -35.877 8.50879 -53.9365 3.37012c-56.2451 -16.0117 -77.2656 -74.2402 -59.0752 -117.751c22.2021 -53.1367 84.6006 -68.8877 126.352 -41.751
c22.1748 14.4199 34.9277 34.4062 36.5107 61.0391c0.353516 5.86523 0.046875 11.7764 0.046875 18.2461c10.7236 -4.98047 19.5488 -11.9531 30.1885 -16.4395zM256 437.714c109.987 0 199.168 -89.1719 199.168 -199.168c0 -109.997 -89.1719 -199.168 -199.168 -199.168
s-199.168 89.1709 -199.168 199.168c0 109.996 89.1719 199.168 199.168 199.168zM256 63.2549c96.8057 0 175.281 78.4756 175.29 175.291c0 96.8145 -78.4844 175.29 -175.29 175.29s-175.29 -78.4854 -175.29 -175.29c0 -96.8154 78.4844 -175.291 175.29 -175.291z" />
    <glyph glyph-name="uniF105" unicode="&#xf105;" 
d="M478.571 163.737h0.446289v-118.951h-446.054v23.2354v95.707v29.2305c0 12.8369 10.3975 23.2354 23.2354 23.2354c9.40234 0 17.4355 -5.59473 21.1035 -13.6289c7.20508 -3.52734 12.2139 -10.8633 12.2139 -19.418v-19.4102h140.353v114.074
c-7.06543 0.456055 -12.707 6.19922 -12.707 13.3857c0 7.1875 5.6416 12.9307 12.707 13.3867v10.6494c0 5.31543 3.56543 10.0264 9.05762 13.2656v47.5605c0 5.5293 4.52441 10.2119 10.873 12.1113v36.5752h-12.958v13.9355h12.958h0.977539h11.4131v-50.5107
c6.3584 -1.89941 10.8828 -6.58203 10.8828 -12.1113v-47.5605c5.49219 -3.23047 9.05762 -7.9502 9.05762 -13.2656v-10.6494c7.07422 -0.456055 12.707 -6.19922 12.707 -13.3867c0 -7.18652 -5.63281 -12.9297 -12.707 -13.3857v-114.064h140.688v19.4092
c0 8.11719 4.49609 15.0996 11.1055 18.8232c3.50977 8.35938 11.7852 14.2246 21.4199 14.2246c12.8281 0 23.2266 -10.4082 23.2266 -23.2363v-29.2305z" />
    <glyph glyph-name="uniF119" unicode="&#xf119;" 
d="M455.168 236.655c0 -96.8047 -69.083 -177.449 -160.646 -195.397v206.829h-77.0332v-206.829c-91.5645 17.9482 -160.646 98.5928 -160.646 195.397c0 109.997 89.1709 199.169 199.177 199.169c109.987 0 199.149 -89.1719 199.149 -199.169zM294.53 297.36v63.4785
h-77.0322v-63.4785h77.0322z" />
    <glyph glyph-name="uniF10A" unicode="&#xf10a;" 
d="M61.7568 197.455l0.725586 0.223633h-0.725586v-0.223633zM383.339 423.853l55.9756 -148.257h-0.604492c-0.307617 -28.4209 -25.9912 -50.6045 -57.6611 -50.6045c-31.6875 0 -57.3994 22.1934 -57.6514 50.6045h0.0283203l55.4072 146.684l-98.2939 -28.3652
c0.37207 -1.85254 0.577148 -3.77051 0.577148 -5.72461c0 -13.1816 -8.58301 -24.2412 -20.415 -28.2158v-246.365c100.277 -1.56445 180.131 -27.3594 180.131 -59.0479h-379.215c0 31.6885 79.8535 57.4932 180.14 59.0479v246.365
c-7.34473 2.4668 -13.4238 7.66113 -16.9795 14.4004l-102.064 -28.8955l55.8262 -147.8h-0.605469c-0.306641 -28.4209 -25.9902 -50.6045 -57.6699 -50.6045c-31.6787 0 -57.3896 22.1934 -57.6504 50.6045h0.0371094l55.1748 146.106l-3.12793 -1.09863l-3.77051 10.7979
l110.648 31.9023c-0.09375 0.931641 -0.233398 1.85254 -0.233398 2.81152c0 16.5049 13.3779 29.8916 29.8916 29.8916c10.4639 0 19.6514 -5.41797 24.9951 -13.5635l107.464 31.5762l3.78906 -10.7979zM76.1953 206.625l88.6689 -0.046875l-44.2744 117.378z
M336.971 284.542l88.6689 -0.046875l-44.2744 117.378zM323.268 275.596h-0.726562v-0.223633z" />
    <glyph glyph-name="uniF10E" unicode="&#xf10e;" 
d="M403.103 179.693l36.9385 63.9443c0 -0.139648 0.00878906 -0.289062 0.00878906 -0.428711c0 -102.66 -83.5205 -186.182 -186.182 -186.182c-80.9795 0 -149.857 52.0469 -175.421 124.379h-32.5068l62.9668 109.074l62.9668 -109.056h-40.7832
c22.667 -44.8975 69.1289 -75.8135 122.777 -75.8135c63.6924 0 117.257 43.5576 132.878 102.409zM108.889 313.027l-41.1553 -71.3076c-0.00976562 0.50293 -0.046875 0.996094 -0.046875 1.49902c0 102.66 83.5215 186.182 186.182 186.182
c77.9639 0 144.737 -48.2393 172.423 -116.382h39.7783l-62.9668 -109.057l-62.9668 109.065h32.0049c-23.9531 40.5039 -67.9102 67.8076 -118.281 67.8076c-60.3975 0 -111.71 -39.1729 -130.188 -93.3984z" />
    <glyph glyph-name="uniF108" unicode="&#xf108;" 
d="M261.455 303.346c-36.5664 0 -66.2061 29.6494 -66.2061 66.207c0 36.5566 29.6396 66.2061 66.2061 66.2061s66.2061 -29.6494 66.2061 -66.2061c0 -36.5576 -29.6396 -66.207 -66.2061 -66.207zM343.962 87.4307c10.9746 0 19.8652 -8.89941 19.8652 -19.8652
s-8.88965 -19.8564 -19.8652 -19.8564h-171.11c-10.9668 0 -19.8564 8.89062 -19.8564 19.8564s8.88965 19.8652 19.8564 19.8652h19.8652v155.835h-25.9727c-10.9658 0 -19.8652 8.89941 -19.8652 19.8652s8.88965 19.8652 19.8652 19.8652h137.505
c10.9658 0 19.8564 -8.89941 19.8564 -19.8652v-175.7h19.8564z" />
    <glyph glyph-name="uniF10F" unicode="&#xf10f;" 
d="M202.678 272.542v109.456h-3.80762c-10.5098 0 -19.0469 8.53711 -19.0469 19.0469c0 10.501 8.53711 19.0371 19.0469 19.0371h114.26c10.5098 0 19.0469 -8.52734 19.0469 -19.0371s-8.53711 -19.0469 -19.0469 -19.0469h-3.80762v-109.456l123.532 -169.481
c3.74219 -5.10059 5.94824 -11.3477 5.94824 -18.124c0 -16.8311 -13.6289 -30.4688 -30.4688 -30.4688h-304.678c-16.8301 0 -30.4678 13.6377 -30.4678 30.4688c0 6.77637 2.21484 13.0234 5.93848 18.124zM240.761 381.998h0.00976562v-114.25l-53.3223 -76.167h137.104
l-53.3223 76.167v114.25h-30.4688z" />
    <glyph glyph-name="uniF103" unicode="&#xf103;" 
d="M484.072 75.6367v-18.6182h-456.145v353.745h27.9268v-335.127h428.218zM73.3096 84.9453v121.019h83.7812v-121.019h-83.7812zM178.809 84.9453v130.327h83.7822v-130.327h-83.7822zM284.318 84.9453v195.491h83.7812v-195.491h-83.7812zM389.818 84.9453v279.272
h83.7812v-279.272h-83.7812zM263.02 310.458l-15.0996 23.0771l-125.021 -81.7061l-21.5322 32.9639l125.003 81.7246l-15.0898 23.0771l109.791 15.2852z" />
    <glyph glyph-name="uniF10C" unicode="&#xf10c;" 
d="M156.83 425.658v-0.00976562h188.984c17.3984 0 31.4922 -14.084 31.4922 -31.4922v-78.8105c0 -11.0312 -4.57031 -21.0293 -11.8877 -28.1885l-34.2578 -34.248c23.4688 -21.5781 38.2705 -52.5957 38.2705 -87.0859c0 -65.2012 -52.9131 -118.114 -118.114 -118.114
c-65.1914 0 -118.104 52.9131 -118.104 118.123c0 34.4814 14.792 65.499 38.2607 87.0869l-34.248 34.248c-7.31738 7.1582 -11.8789 17.1562 -11.8789 28.1875v78.8115c0 17.3984 14.085 31.4922 31.4834 31.4922zM251.317 228.809
c-2.75488 0 -5.04492 -1.73242 -5.83691 -4.1709l-14.3262 -35.1973h-36.7803c-3.30469 0 -6.05078 -3.54688 -6.05078 -6.77734c0 -1.96387 0.949219 -3.69629 2.44824 -4.71973l31.1016 -21.1787s-10.082 -37.2363 -10.3984 -38.334
c-0.223633 -0.549805 -0.307617 -1.18262 -0.307617 -1.81543c0 -3.30469 2.68164 -5.90234 6.05176 -5.90234c1.49805 0 2.92285 0.549805 3.94629 1.41504l30.1523 23.543l30.1611 -23.543c1.03418 -0.865234 2.42969 -1.41504 3.93848 -1.41504
c3.37012 0 6.05078 2.59766 6.05078 5.90234c0 0.632812 -0.0839844 1.25684 -0.307617 1.81543c-0.325195 1.08887 -10.2393 38.4932 -10.2393 38.4932l30.9336 21.0195c1.49902 1.02344 2.44824 2.75586 2.44824 4.71973c0 3.23047 -2.75586 6.77734 -6.05078 6.77734
h-36.7705l-14.3369 35.1973c-0.791016 2.43848 -3.05273 4.1709 -5.82715 4.1709zM196.198 370.539c0 8.65723 -7.08398 15.751 -15.7412 15.751c-8.64844 0 -15.7422 -7.09375 -15.7422 -15.751v-55.1094c0 -8.6582 7.08398 -15.751 15.7422 -15.751
c8.65723 0 15.7412 7.09277 15.7412 15.751v55.1094zM267.06 370.539c0 8.65723 -7.0752 15.751 -15.7422 15.751c-8.64844 0 -15.7412 -7.09375 -15.7412 -15.751v-70.8604c0 -8.6582 7.08398 -15.7422 15.7412 -15.7422s15.7422 7.08398 15.7422 15.7422v70.8604z
M337.93 370.539c0 8.65723 -7.09375 15.751 -15.7422 15.751c-8.66699 0 -15.7412 -7.09375 -15.7412 -15.751v-55.1094c0 -8.6582 7.06543 -15.751 15.7412 -15.751c8.64844 0 15.7422 7.09277 15.7422 15.751v55.1094z" />
    <glyph glyph-name="uniF107" unicode="&#xf107;" 
d="M426.543 308.187v-209.408v-40.2705v-8.05273h-338.274v8.05273v40.2705v209.408h48.3145v-209.408h48.3232v209.408h48.3232v-209.408h48.3242v209.408h56.3848v-209.408h40.2617v209.408h48.3428zM484.026 324.301h-456.053l228.017 108.739z" />
  </font>
</defs>
</svg>
